<svg width="1024" height="1024" viewBox="0 0 1024 1024" fill="none" xmlns="http://www.w3.org/2000/svg">
<g clip-path="url(#clip0_42_2)">
<path d="M582.772 840.4C398.772 840.4 241.172 690.8 241.172 498.8C241.172 338 320.372 228.4 429.972 228.4C477.972 228.4 517.172 250 528.372 290.8C543.572 279.6 557.172 269.2 567.572 262C597.972 239.6 613.172 229.2 625.972 229.2C635.572 229.2 645.972 233.2 666.772 242C690.772 252.4 715.572 262.8 723.572 262.8C734.772 262.8 746.772 250.8 763.572 234L786.772 255.6L713.172 334C698.772 349.2 686.772 358 675.572 358C663.572 358 644.372 351.6 618.772 338.8C593.172 326 573.972 318 561.972 318C553.972 318 545.172 321.2 534.772 328.4C516.372 340.4 510.772 347.6 510.772 359.6C510.772 372.4 531.572 413.2 572.372 480.4C613.172 548.4 633.972 589.2 633.972 603.6C633.972 616.4 625.172 627.6 609.972 643.6C594.772 659.6 569.172 685.2 532.372 722C557.172 728.4 582.772 731.6 609.972 731.6C665.972 731.6 737.172 710.8 766.772 689.2L785.172 715.6L641.172 834.8C623.572 838.8 604.372 840.4 582.772 840.4ZM334.772 464.4C334.772 579.6 401.172 673.2 502.772 712.4C518.772 693.2 527.572 674 527.572 657.2C527.572 641.2 513.972 611.6 486.772 567.6L413.972 449.2C404.372 433.2 398.772 419.6 398.772 409.2C398.772 398.8 407.572 386 425.972 370C441.972 355.6 473.172 331.6 504.372 308.4C495.572 280.4 465.972 262.8 437.972 262.8C375.572 262.8 334.772 345.2 334.772 464.4Z" fill="white"/>
</g>
<defs>
<clipPath id="clip0_42_2">
<rect width="1024" height="1024" fill="white"/>
</clipPath>
</defs>
</svg>
